<svg width="21" height="19" viewBox="0 0 21 19" fill="none" xmlns="http://www.w3.org/2000/svg">
<g id="Group 8">
<g id="Group 3">
<mask id="mask0_292_73" style="mask-type:luminance" maskUnits="userSpaceOnUse" x="0" y="0" width="21" height="19">
<path id="Clip 2" fill-rule="evenodd" clip-rule="evenodd" d="M0.900009 0H20.9137V18.1855H0.900009V0Z" fill="white"/>
</mask>
<g mask="url(#mask0_292_73)">
<path id="Fill 1" fill-rule="evenodd" clip-rule="evenodd" d="M10.9127 1.5C10.4367 1.5 10.0127 1.746 9.7747 2.159L2.5767 14.724C2.3427 15.134 2.3447 15.623 2.5817 16.032C2.8187 16.441 3.2427 16.686 3.7157 16.686H18.0987C18.5707 16.686 18.9947 16.441 19.2317 16.032C19.4697 15.623 19.4717 15.134 19.2357 14.724L12.0507 2.159C11.8137 1.746 11.3897 1.5 10.9127 1.5ZM18.0987 18.186H3.7157C2.7017 18.186 1.7927 17.662 1.2837 16.784C0.774702 15.907 0.771702 14.858 1.2747 13.979L8.4747 1.413C8.9807 0.528 9.8917 0 10.9127 0H10.9137C11.9337 0 12.8467 0.529 13.3527 1.415L20.5387 13.979C21.0417 14.858 21.0387 15.907 20.5297 16.784C20.0207 17.662 19.1117 18.186 18.0987 18.186Z" fill="#484C52"/>
</g>
</g>
<path id="Fill 4" fill-rule="evenodd" clip-rule="evenodd" d="M10.9039 11.164C10.4899 11.164 10.1539 10.828 10.1539 10.414V7.314C10.1539 6.9 10.4899 6.564 10.9039 6.564C11.3179 6.564 11.6539 6.9 11.6539 7.314V10.414C11.6539 10.828 11.3179 11.164 10.9039 11.164Z" fill="#484C52"/>
<path id="Fill 6" fill-rule="evenodd" clip-rule="evenodd" d="M10.9059 14.499C10.3529 14.499 9.90091 14.052 9.90091 13.499C9.90091 12.946 10.3439 12.499 10.8959 12.499H10.9059C11.4589 12.499 11.9059 12.946 11.9059 13.499C11.9059 14.052 11.4589 14.499 10.9059 14.499Z" fill="#484C52"/>
</g>
</svg>
