<svg width="25" height="24" viewBox="0 0 25 24" fill="none" xmlns="http://www.w3.org/2000/svg">
<g id="vuesax/bold/clock">
<g id="clock">
<path id="Vector" d="M12.1 2C6.58998 2 2.09998 6.49 2.09998 12C2.09998 17.51 6.58998 22 12.1 22C17.61 22 22.1 17.51 22.1 12C22.1 6.49 17.61 2 12.1 2ZM16.45 15.57C16.31 15.81 16.06 15.94 15.8 15.94C15.67 15.94 15.54 15.91 15.42 15.83L12.32 13.98C11.55 13.52 10.98 12.51 10.98 11.62V7.52C10.98 7.11 11.32 6.77 11.73 6.77C12.14 6.77 12.48 7.11 12.48 7.52V11.62C12.48 11.98 12.78 12.51 13.09 12.69L16.19 14.54C16.55 14.75 16.67 15.21 16.45 15.57Z" fill="#484C52"/>
</g>
</g>
</svg>
